<?xml version="1.0" standalone="no"?>
<!DOCTYPE svg PUBLIC "-//W3C//DTD SVG 20010904//EN"
 "http://www.w3.org/TR/2001/REC-SVG-20010904/DTD/svg10.dtd">
<svg version="1.0" xmlns="http://www.w3.org/2000/svg"
 width="292.000000pt" height="148.000000pt" viewBox="0 0 292.000000 148.000000"
 preserveAspectRatio="xMidYMid meet">

<g transform="translate(0.000000,148.000000) scale(0.100000,-0.100000)"
fill="#000000" stroke="none">
<path d="M728 1473 c402 -2 1062 -2 1465 0 402 1 73 2 -733 2 -806 0 -1135 -1
-732 -2z"/>
<path d="M1190 1279 c-463 -35 -842 -152 -999 -309 -150 -150 -84 -322 174
-450 489 -242 1505 -267 2081 -51 490 184 498 476 19 664 -308 122 -822 181
-1275 146z m64 -288 c56 -35 79 -94 74 -194 -4 -100 -26 -149 -81 -185 -35
-23 -51 -27 -116 -27 -132 0 -182 52 -189 198 -4 68 -1 84 22 131 40 82 90
108 193 102 41 -2 74 -11 97 -25z m252 -144 c28 -87 54 -160 57 -163 3 -3 29
68 58 158 l54 163 38 3 c25 2 37 -1 37 -10 0 -7 -31 -101 -69 -208 l-68 -195
-53 0 -54 0 -67 195 c-38 107 -68 201 -68 208 -1 9 11 12 41 10 l42 -3 52
-158z m424 -23 l0 -186 -29 -29 c-50 -50 -147 -35 -139 22 3 21 7 24 37 21 20
-2 37 2 42 10 5 7 9 85 9 174 0 88 3 164 7 167 3 4 21 7 40 7 l33 0 0 -186z"/>
<path d="M1068 921 c-30 -27 -33 -34 -36 -105 -6 -115 23 -166 96 -166 68 0
100 33 117 117 10 52 -12 139 -42 163 -39 30 -95 27 -135 -9z"/>
<path d="M590 276 c0 -10 31 -136 37 -152 6 -16 7 -15 20 2 7 10 13 28 13 40
0 42 18 34 29 -12 10 -37 14 -44 26 -34 14 12 35 92 35 135 0 34 -18 32 -26
-2 -12 -55 -16 -59 -28 -20 -14 48 -28 51 -41 10 -14 -41 -25 -52 -25 -24 0
27 -17 61 -30 61 -6 0 -10 -2 -10 -4z"/>
<path d="M1870 270 c0 -5 4 -10 9 -10 6 0 13 5 16 10 3 6 -1 10 -9 10 -9 0
-16 -4 -16 -10z"/>
<path d="M890 196 c0 -57 4 -78 14 -82 23 -9 54 14 61 44 7 33 -9 82 -26 82
-7 0 -21 7 -31 17 -17 15 -18 13 -18 -61z m52 -31 c-6 -14 -16 -25 -22 -25
-18 0 -23 30 -11 57 11 24 13 25 28 10 14 -13 14 -21 5 -42z"/>
<path d="M782 228 c-17 -17 -15 -69 4 -96 17 -25 46 -29 63 -9 14 17 4 27 -26
27 -33 0 -28 19 7 27 47 9 34 63 -15 63 -12 0 -26 -5 -33 -12z m48 -8 c0 -5
-7 -10 -16 -10 -8 0 -12 5 -9 10 3 6 10 10 16 10 5 0 9 -4 9 -10z"/>
<path d="M990 178 c0 -35 3 -73 6 -85 7 -25 24 -32 24 -10 0 7 13 23 29 35 33
24 45 60 31 96 -8 22 -16 26 -50 26 l-40 0 0 -62z m64 23 c4 -5 1 -22 -5 -38
-11 -28 -11 -28 -21 -6 -16 34 8 74 26 44z"/>
<path d="M1100 231 c0 -6 15 -11 33 -14 l32 -3 -32 -13 c-27 -11 -33 -19 -33
-42 0 -32 35 -57 64 -46 19 7 22 77 6 108 -11 20 -70 28 -70 10z m58 -73 c-3
-7 -11 -13 -18 -13 -7 0 -15 6 -17 13 -3 7 4 12 17 12 13 0 20 -5 18 -12z"/>
<path d="M1216 224 c-3 -9 -6 -31 -6 -51 0 -29 5 -36 30 -46 35 -13 39 -24 8
-29 -34 -5 -36 -30 -2 -26 37 4 54 38 54 111 l0 57 -39 0 c-26 0 -41 -5 -45
-16z m52 -33 c2 -13 -1 -28 -6 -33 -13 -13 -34 25 -26 47 9 22 28 13 32 -14z"/>
<path d="M1327 222 c-10 -10 -17 -28 -17 -39 0 -31 39 -75 64 -71 28 4 27 32
-1 36 -32 5 -29 18 7 31 33 11 35 14 20 42 -13 24 -52 25 -73 1z m48 -2 c3 -5
-1 -10 -10 -10 -9 0 -13 5 -10 10 3 6 8 10 10 10 2 0 7 -4 10 -10z"/>
<path d="M1490 213 c0 -18 10 -35 28 -50 l27 -22 -27 -1 c-30 0 -38 -17 -13
-26 19 -8 65 22 65 41 0 8 -11 22 -25 31 -30 20 -32 34 -5 34 11 0 20 5 20 10
0 6 -16 10 -35 10 -31 0 -35 -3 -35 -27z"/>
<path d="M1587 234 c-4 -4 -7 -25 -7 -46 0 -42 31 -83 57 -74 8 3 19 6 24 6 5
0 9 7 9 16 0 12 -7 14 -29 9 -20 -4 -30 -2 -34 9 -5 11 3 17 29 22 31 6 35 10
32 33 -3 22 -9 26 -38 29 -20 2 -39 0 -43 -4z m48 -14 c3 -5 1 -10 -4 -10 -6
0 -11 5 -11 10 0 6 2 10 4 10 3 0 8 -4 11 -10z"/>
<path d="M1690 185 c0 -64 15 -73 24 -15 9 58 39 55 62 -5 9 -25 22 -45 29
-45 16 0 35 53 34 94 l-1 31 -18 -39 -18 -38 -12 36 c-11 34 -14 36 -56 36
l-44 0 0 -55z"/>
<path d="M1920 221 c-24 -46 3 -115 43 -109 28 4 35 28 8 28 -12 0 -24 6 -27
13 -8 21 14 67 31 67 8 0 15 5 15 10 0 19 -59 11 -70 -9z"/>
<path d="M2017 233 c-14 -13 -7 -92 9 -107 19 -20 48 -21 63 -3 14 17 4 27
-26 27 -33 0 -28 19 7 27 32 6 40 29 18 51 -13 13 -60 16 -71 5z m43 -13 c0
-5 -5 -10 -11 -10 -5 0 -7 5 -4 10 3 6 8 10 11 10 2 0 4 -4 4 -10z"/>
<path d="M2120 225 c-11 -13 -9 -20 13 -43 34 -35 34 -42 0 -42 -26 0 -26 -1
-11 -17 14 -14 22 -15 43 -5 34 16 34 55 0 70 -14 6 -25 16 -25 22 0 5 11 10
25 10 14 0 25 5 25 10 0 16 -56 12 -70 -5z"/>
<path d="M1882 175 c0 -16 2 -22 5 -12 2 9 2 23 0 30 -3 6 -5 -1 -5 -18z"/>
</g>
</svg>
